# xmcd
#
# Track frame offsets:
#	151
#	15983
#	24699
#	36881
#	48795
#	69171
#	82824
#	100875
#	116614
#	131930
#	143066
#	158647
#	171888
#	187869
#	199982
#	222195
#
# Disc length: 3474 seconds
#
# Revision: 1
# Processed by: cddbd v1.5.2PL0 Copyright (c) Steve Scherf et al.
# Submitted via: audiograbber 1.83.01
#
DISCID=ce0d9010
DTITLE=Diverse - Happy Birthday
DYEAR=1900
DGENRE=
TTITLE0=Power Pack - Birthday song
TTITLE1=Fats and His Cats - Happy birthday
TTITLE2=Cliff Richard - Congratulation
TTITLE3=Don McLean - Birthday song
TTITLE4=Reinhard Fendrich - Der Geburtstag
TTITLE5=Alterate Images - Happy birthday
TTITLE6=Little River Band - Happy aniversery
TTITLE7=Howard Carpendale - Happy birthday rock'n' roll
TTITLE8=Ludwig Hirsch - Das Geburtstagsgeschenk
TTITLE9=Barrelhouse Jazzband - Happy birthday
TTITLE10=Frank Zander - Zum Geburtstag alles Gute
TTITLE11=Schurli Und Dir Motorbienen - Zum Geburtstag
TTITLE12=Terence Trent D'Arby - Wishing well
TTITLE13=Mr. Boom And The Boomlights - Happy birthday
TTITLE14=Kool and The Gang - Celebration
TTITLE15=Power Pack - Birthday song
EXTD=
EXTT0=
EXTT1=
EXTT2=
EXTT3=
EXTT4=
EXTT5=
EXTT6=
EXTT7=
EXTT8=
EXTT9=
EXTT10=
EXTT11=
EXTT12=
EXTT13=
EXTT14=
EXTT15=
PLAYORDER=
